HIERARCHY
ROOT hip
{
  OFFSET 0 0 0
  CHANNELS 6 Xposition Yposition Zposition Zrotation Yrotation Xrotation
  JOINT abdomen
  {
    OFFSET 0 20.6881 -0.73152
    CHANNELS 3 Zrotation Xrotation Yrotation
    JOINT chest
    {
      OFFSET 0 11.7043 -0.48768
      CHANNELS 3 Zrotation Xrotation Yrotation
      JOINT neck
      {
        OFFSET 0 22.1894 -2.19456
        CHANNELS 3 Zrotation Xrotation Yrotation
        JOINT head
        {
          OFFSET -0.24384 7.07133 1.2192
          CHANNELS 3 Zrotation Xrotation Yrotation
          JOINT leftEye
          {
            OFFSET 4.14528 8.04674 8.04672
            CHANNELS 3 Zrotation Xrotation Yrotation
            End Site
            {
              OFFSET 1 0 0
            }
          }
          JOINT rightEye
          {
            OFFSET -3.6576 8.04674 8.04672
            CHANNELS 3 Zrotation Xrotation Yrotation
            End Site
            {
              OFFSET 1 0 0
            }
          }
        }
      }
      JOINT rCollar
      {
        OFFSET -2.68224 19.2634 -4.8768
        CHANNELS 3 Zrotation Xrotation Yrotation
        JOINT rShldr
        {
          OFFSET -8.77824 -1.95073 1.46304
          CHANNELS 3 Zrotation Xrotation Yrotation
          JOINT rForeArm
          {
            OFFSET -28.1742 -1.7115 0.48768
            CHANNELS 3 Zrotation Xrotation Yrotation
            JOINT rHand
            {
              OFFSET -22.5879 0.773209 7.07136
              CHANNELS 3 Zrotation Xrotation Yrotation
              JOINT rThumb1
              {
                OFFSET -1.2192 -0.487915 3.41376
                CHANNELS 3 Zrotation Xrotation Yrotation
                JOINT rThumb2
                {
                  OFFSET -3.37035 -0.52449 3.41376
                  CHANNELS 3 Zrotation Xrotation Yrotation
                  End Site
                  {
                    OFFSET -1.78271 -1.18214 1.43049
                  }
                }
              }
              JOINT rIndex1
              {
                OFFSET -7.75947 0.938293 5.60832
                CHANNELS 3 Zrotation Xrotation Yrotation
                JOINT rIndex2
                {
                  OFFSET -2.54057 -0.884171 1.56538
                  CHANNELS 3 Zrotation Xrotation Yrotation
                  End Site
                  {
                    OFFSET -1.62519 -0.234802 1.16502
                  }
                }
              }
              JOINT rMid1
              {
                OFFSET -8.24714 1.18213 3.41376
                CHANNELS 3 Zrotation Xrotation Yrotation
                JOINT rMid2
                {
                  OFFSET -3.10165 -0.590103 1.0647
                  CHANNELS 3 Zrotation Xrotation Yrotation
                  End Site
                  {
                    OFFSET -2.48547 -0.328903 0.83742
                  }
                }
              }
              JOINT rRing1
              {
                OFFSET -8.82822 0.546677 1.51678
                CHANNELS 3 Zrotation Xrotation Yrotation
                JOINT rRing2
                {
                  OFFSET -2.60934 -0.819778 -0.0198488
                  CHANNELS 3 Zrotation Xrotation Yrotation
                  End Site
                  {
                    OFFSET -2.33842 -0.294052 0.168128
                  }
                }
              }
              JOINT rPinky1
              {
                OFFSET -8.27202 -0.0477905 -0.4584
                CHANNELS 3 Zrotation Xrotation Yrotation
                JOINT rPinky2
                {
                  OFFSET -1.82734 -0.647385 -0.700984
                  CHANNELS 3 Zrotation Xrotation Yrotation
                  End Site
                  {
                    OFFSET -1.69225 -0.51767 -0.607171
                  }
                }
              }
            }
          }
        }
      }
      JOINT lCollar
      {
        OFFSET 2.68224 19.2634 -4.8768
        CHANNELS 3 Zrotation Xrotation Yrotation
        JOINT lShldr
        {
          OFFSET 8.77824 -1.95073 1.46304
          CHANNELS 3 Zrotation Xrotation Yrotation
          JOINT lForeArm
          {
            OFFSET 28.1742 -1.7115 0.48768
            CHANNELS 3 Zrotation Xrotation Yrotation
            JOINT lHand
            {
              OFFSET 22.5879 0.773209 7.07136
              CHANNELS 3 Zrotation Xrotation Yrotation
              JOINT lThumb1
              {
                OFFSET 1.2192 -0.487915 3.41376
                CHANNELS 3 Zrotation Xrotation Yrotation
                JOINT lThumb2
                {
                  OFFSET 3.37035 -0.52449 3.41376
                  CHANNELS 3 Zrotation Xrotation Yrotation
                  End Site
                  {
                    OFFSET 1.78271 -1.18214 1.43049
                  }
                }
              }
              JOINT lIndex1
              {
                OFFSET 7.75947 0.938293 5.60832
                CHANNELS 3 Zrotation Xrotation Yrotation
                JOINT lIndex2
                {
                  OFFSET 2.54057 -0.884171 1.56538
                  CHANNELS 3 Zrotation Xrotation Yrotation
                  End Site
                  {
                    OFFSET 1.62519 -0.234802 1.16502
                  }
                }
              }
              JOINT lMid1
              {
                OFFSET 8.24714 1.18213 3.41376
                CHANNELS 3 Zrotation Xrotation Yrotation
                JOINT lMid2
                {
                  OFFSET 3.10165 -0.590103 1.0647
                  CHANNELS 3 Zrotation Xrotation Yrotation
                  End Site
                  {
                    OFFSET 2.48547 -0.328903 0.83742
                  }
                }
              }
              JOINT lRing1
              {
                OFFSET 8.82822 0.546677 1.51678
                CHANNELS 3 Zrotation Xrotation Yrotation
                JOINT lRing2
                {
                  OFFSET 2.60934 -0.819778 -0.0198488
                  CHANNELS 3 Zrotation Xrotation Yrotation
                  End Site
                  {
                    OFFSET 2.33842 -0.294052 0.168128
                  }
                }
              }
              JOINT lPinky1
              {
                OFFSET 8.27202 -0.0477905 -0.4584
                CHANNELS 3 Zrotation Xrotation Yrotation
                JOINT lPinky2
                {
                  OFFSET 1.82734 -0.647385 -0.700984
                  CHANNELS 3 Zrotation Xrotation Yrotation
                  End Site
                  {
                    OFFSET 1.69225 -0.51767 -0.607171
                  }
                }
              }
            }
          }
        }
      }
    }
  }
  JOINT rButtock
  {
    OFFSET -8.77824 4.35084 1.2192
    CHANNELS 3 Zrotation Xrotation Yrotation
    JOINT rThigh
    {
      OFFSET 0 -1.70687 -2.19456
      CHANNELS 3 Zrotation Xrotation Yrotation
      JOINT rShin
      {
        OFFSET 0 -36.8199 0.73152
        CHANNELS 3 Zrotation Xrotation Yrotation
        JOINT rFoot
        {
          OFFSET 0.73152 -45.1104 -5.12064
          CHANNELS 3 Zrotation Xrotation Yrotation
          End Site
          {
            OFFSET -1.1221 -3.69964 12.103
          }
        }
      }
    }
  }
  JOINT lButtock
  {
    OFFSET 8.77824 4.35084 1.2192
    CHANNELS 3 Zrotation Xrotation Yrotation
    JOINT lThigh
    {
      OFFSET 0 -1.70687 -2.19456
      CHANNELS 3 Zrotation Xrotation Yrotation
      JOINT lShin
      {
        OFFSET 0 -36.8199 0.73152
        CHANNELS 3 Zrotation Xrotation Yrotation
        JOINT lFoot
        {
          OFFSET -0.73152 -45.1104 -5.12064
          CHANNELS 3 Zrotation Xrotation Yrotation
          End Site
          {
            OFFSET 1.1221 -3.69964 12.103
          }
        }
      }
    }
  }
}
MOTION
Frames:	4
Frame Time:	0.03333
-1.5454368079777547 30.557706271125106 48.993818699435565 11.80117416381836 24.84619903564453 11.428753852844238 -19.38791275024414 7.788733005523682 5.703063011169434 4.568009376525879 -9.608147621154785 1.9583879709243774 -8.571405410766602 15.972418785095215 -12.689749717712402 10.141697883605957 -27.978300094604492 -22.46476936340332 -0.12529060244560242 0.04011019691824913 0.022929994389414787 -0.0013070598943158984 -0.04570255056023598 -0.0855909064412117 -0.07383156567811966 -0.07707799971103668 -0.141869455575943 34.36508560180664 -22.18431282043457 60.455074310302734 -8.75901985168457 -3.410604953765869 15.335464477539062 -0.9308644533157349 28.25872802734375 4.337803363800049 0.08934526145458221 0.1959894597530365 -0.0007766795461066067 0.08491290360689163 -0.016119033098220825 -0.08732832223176956 -0.05785598233342171 -0.011680866591632366 -0.007215859368443489 7.697844982147217 5.618836879730225 0.32575833797454834 0.10237881541252136 -0.04472643509507179 -0.06740955263376236 3.002532958984375 0.9463842511177063 0.10709047317504883 -0.06957092136144638 0.019490251317620277 0.02132548950612545 10.242729187011719 0.6644279360771179 0.17701685428619385 0.0066937971860170364 -0.02822643518447876 -0.16998818516731262 2.2204861640930176 -0.7610386610031128 -0.1809253990650177 0.06682032346725464 0.06898299604654312 0.024812281131744385 -110.64363098144531 47.28769302368164 51.12253952026367 27.99343490600586 -40.471900939941406 -85.23787689208984 9.694977760314941 -62.34074401855469 15.841702461242676 0.036607466638088226 0.041249167174100876 -0.15346728265285492 0.07057268917560577 0.1207703948020935 0.07822734117507935 -0.08891446888446808 0.07698673009872437 0.004611633252352476 -7.740320205688477 5.435417652130127 -0.3943009078502655 0.05752673000097275 -0.04203644022345543 0.08721014857292175 -2.9038257598876953 0.9231418371200562 -0.18525435030460358 -0.037514250725507736 0.06407934427261353 -0.09552869200706482 -10.268959045410156 0.7475070953369141 -0.1227620542049408 0.011537236161530018 -0.08609417080879211 -0.03790230676531792 -2.378939151763916 -0.7458392381668091 0.23822028934955597 -0.11133736371994019 0.024144163355231285 0.16668462753295898 -68.52810668945312 -59.98884963989258 -59.93708419799805 -1.524163842201233 66.92211151123047 2.0045764446258545 -0.030839376151561737 4.045111656188965 9.031281471252441 0.012333539314568043 -0.0654333159327507 0.1950085163116455 7.980245590209961 14.868331909179688 -0.6653686165809631 -0.15975631773471832 24.17661476135254 -2.5690743923187256 7.2459306716918945 -14.26590633392334 35.35858917236328
-1.5117363344477945 30.540637628389245 49.04776089213811 11.924744606018066 24.7698974609375 11.691468238830566 -19.547786712646484 7.685059547424316 5.747197151184082 4.558560848236084 -9.6336088180542 1.9712775945663452 -8.539737701416016 16.057165145874023 -12.727295875549316 10.160645484924316 -27.997957229614258 -22.51578712463379 -0.10897841304540634 0.048056066036224365 0.02228415198624134 -0.005574486218392849 -0.04295496270060539 -0.0880388393998146 -0.06753704696893692 -0.08057259023189545 -0.1394234448671341 34.199771881103516 -22.344030380249023 60.545162200927734 -8.771020889282227 -3.4084653854370117 15.376267433166504 -0.9449044466018677 28.362865447998047 4.357089042663574 0.09055890887975693 0.19006557762622833 0.005181426648050547 0.08995403349399567 -0.016738200560212135 -0.09078577905893326 -0.05394487828016281 -0.004716002847999334 -0.01453070342540741 7.704032897949219 5.6242594718933105 0.3349863290786743 0.0979359820485115 -0.06254784762859344 -0.055466048419475555 2.996856451034546 0.9420852661132812 0.11515727639198303 -0.06515081971883774 0.022773969918489456 0.0255736093968153 10.244023323059082 0.6713111996650696 0.19036106765270233 0.009116724133491516 -0.029498977586627007 -0.1583089977502823 2.227159023284912 -0.756517231464386 -0.19460587203502655 0.05393533408641815 0.07334478944540024 0.024709470570087433 -110.5057373046875 47.19081115722656 50.97470474243164 28.01662254333496 -40.42627716064453 -85.16602325439453 9.82137393951416 -62.56696701049805 15.995991706848145 0.04342801868915558 0.042920440435409546 -0.1536330133676529 0.06120351329445839 0.11622390896081924 0.08231983333826065 -0.07666695863008499 0.08742443472146988 0.004425360821187496 -7.749802112579346 5.432413578033447 -0.3916562795639038 0.05689060315489769 -0.0526474304497242 0.08965784311294556 -2.899209499359131 0.9142856597900391 -0.1905338615179062 -0.05217065289616585 0.05806763097643852 -0.08762920647859573 -10.26700496673584 0.7477638125419617 -0.1256752461194992 0.0200248584151268 -0.08384519815444946 -0.049318160861730576 -2.3769333362579346 -0.7445360422134399 0.23492445051670074 -0.10900714993476868 0.02160794660449028 0.17237988114356995 -69.5081558227539 -60.046443939208984 -60.950965881347656 -1.5468430519104004 67.47090148925781 2.030292510986328 0.011939085088670254 3.6618564128875732 9.12868595123291 0.0011779417982324958 -0.07278701663017273 0.19362598657608032 7.809260368347168 15.420034408569336 -0.6102445125579834 -0.16959312558174133 23.185928344726562 -2.554192543029785 7.063319683074951 -14.088729858398438 35.26673889160156
-1.472228492576031 30.518712721153506 49.10640924526135 12.009525299072266 24.747085571289062 11.881476402282715 -19.637094497680664 7.606035232543945 5.758782863616943 4.563678741455078 -9.648138999938965 1.9773650169372559 -8.51382064819336 16.131452560424805 -12.748030662536621 10.156596183776855 -28.00325584411621 -22.55657958984375 -0.09530162066221237 0.05744234099984169 0.022464541718363762 -0.009438726119697094 -0.04083017259836197 -0.09097424894571304 -0.0634322315454483 -0.08370152860879898 -0.1365620642900467 34.01872253417969 -22.422639846801758 60.60602569580078 -8.786062240600586 -3.4025216102600098 15.425851821899414 -0.9604025483131409 28.44203758239746 4.373166561126709 0.08721935749053955 0.18392634391784668 0.008331653662025928 0.09661199152469635 -0.01677161455154419 -0.09166575223207474 -0.04922698810696602 5.9146939747733995e-05 -0.024542992934584618 7.707837104797363 5.627788066864014 0.3420063257217407 0.09349212795495987 -0.07581199705600739 -0.04276413097977638 2.99139142036438 0.9355050325393677 0.12069657444953918 -0.058971256017684937 0.025503676384687424 0.03051527589559555 10.245924949645996 0.6785746216773987 0.20225822925567627 0.01182472798973322 -0.03093624673783779 -0.14745160937309265 2.229736566543579 -0.7510165572166443 -0.201874777674675 0.04185914993286133 0.0781799852848053 0.02226497232913971 -110.40483093261719 47.20482635498047 50.7856559753418 28.038227081298828 -40.37970733642578 -85.09274291992188 9.943647384643555 -62.78951644897461 16.14933967590332 0.05135869234800339 0.044223811477422714 -0.1510758250951767 0.05332833155989647 0.11276005208492279 0.08210882544517517 -0.06313005834817886 0.08741623163223267 0.007920075207948685 -7.756613254547119 5.429690361022949 -0.38942578434944153 0.055693529546260834 -0.06419987231492996 0.09030065685510635 -2.892991542816162 0.9051283001899719 -0.1941949427127838 -0.06611746549606323 0.05137809365987778 -0.07920904457569122 -10.26534652709961 0.74769127368927 -0.1289641112089157 0.02916462905704975 -0.08083163946866989 -0.057687800377607346 -2.3720316886901855 -0.7445074319839478 0.23100139200687408 -0.10470777004957199 0.020760824903845787 0.17978858947753906 -70.3399887084961 -60.14857482910156 -61.78019714355469 -1.5687224864959717 67.9791488647461 2.054192066192627 0.06861674785614014 3.332773447036743 9.268776893615723 -0.007461269851773977 -0.07953871786594391 0.18961919844150543 7.679615020751953 15.891393661499023 -0.5627841949462891 -0.17828954756259918 22.420976638793945 -2.5415472984313965 6.922755718231201 -13.939169883728027 35.18601989746094
-1.4297631787936518 30.510636022459963 49.1669526023533 12.058087348937988 24.74994659423828 12.020352363586426 -19.684406280517578 7.545878887176514 5.749361515045166 4.566821098327637 -9.659252166748047 1.9780278205871582 -8.487863540649414 16.1873836517334 -12.752184867858887 10.159932136535645 -27.996829986572266 -22.574609756469727 -0.0822492316365242 0.06575845927000046 0.023336362093687057 -0.012192519381642342 -0.038948021829128265 -0.09193120896816254 -0.06398369371891022 -0.08309070765972137 -0.1357555091381073 33.834110260009766 -22.4493408203125 60.617549896240234 -8.816106796264648 -3.4079508781433105 15.494426727294922 -0.966451108455658 28.465953826904297 4.376707077026367 0.08289559185504913 0.17575715482234955 0.009298183023929596 0.10035363584756851 -0.0167254526168108 -0.09203533828258514 -0.044239405542612076 0.004777051974087954 -0.034800224006175995 7.709136962890625 5.630806922912598 0.34894391894340515 0.0896710604429245 -0.08532702922821045 -0.03474430367350578 2.9842820167541504 0.931395947933197 0.126859650015831 -0.05038480833172798 0.029428549110889435 0.03541378676891327 10.250924110412598 0.6860635876655579 0.21385809779167175 0.014374117366969585 -0.031620755791664124 -0.13983239233493805 2.226835012435913 -0.7444394826889038 -0.20485469698905945 0.035065311938524246 0.07970625907182693 0.018851090222597122 -110.24596405029297 47.22184371948242 50.55529022216797 28.06070327758789 -40.332332611083984 -84.96936798095703 10.042850494384766 -62.95118713378906 16.26821517944336 0.056996557861566544 0.04732995852828026 -0.14787329733371735 0.042686790227890015 0.11019323766231537 0.0782817155122757 -0.05129396170377731 0.08367316424846649 0.013145271688699722 -7.761449337005615 5.4292473793029785 -0.3897651731967926 0.055317286401987076 -0.0757223442196846 0.09261742979288101 -2.885093927383423 0.8997762799263 -0.19346797466278076 -0.07511621713638306 0.04833182692527771 -0.06946101039648056 -10.263537406921387 0.7466952204704285 -0.13045433163642883 0.03565716743469238 -0.07677149027585983 -0.0674312636256218 -2.3672778606414795 -0.7465803027153015 0.2287154346704483 -0.10075908899307251 0.019696734845638275 0.18990296125411987 -71.03141784667969 -60.23028564453125 -62.45954895019531 -1.5858231782913208 68.45074462890625 2.0740396976470947 0.1303548961877823 3.029219150543213 9.378722190856934 -0.012657595798373222 -0.08700620383024216 0.1878592073917389 7.606467247009277 16.279409408569336 -0.5217514038085938 -0.17883121967315674 21.81471061706543 -2.530489206314087 6.794112682342529 -13.792245864868164 35.08169937133789
